<svg preserveAspectRatio="none" width="100%" height="100%" overflow="visible" style="display: block;" viewBox="0 0 50.359 50.359" fill="none" xmlns="http://www.w3.org/2000/svg">
<g id="material-symbols:target">
<path id="Vector" d="M16.9962 44.511C14.4433 43.4087 12.2226 41.9133 10.3341 40.0248C8.44566 38.1364 6.95098 35.9157 5.85007 33.3628C4.74917 30.8098 4.19802 28.0821 4.19662 25.1794C4.19522 22.2768 4.74637 19.549 5.85007 16.9961C6.95378 14.4432 8.44846 12.2225 10.3341 10.334C12.2198 8.44554 14.4405 6.95086 16.9962 5.84995C19.5519 4.74905 22.2797 4.1979 25.1795 4.1965C28.0794 4.1951 30.8072 4.74625 33.3629 5.84995C35.9186 6.95365 38.1393 8.44834 40.025 10.334C41.9106 12.2197 43.406 14.4404 44.5111 16.9961C45.6162 19.5518 46.1667 22.2796 46.1625 25.1794C46.1583 28.0793 45.6071 30.807 44.509 33.3628C43.4109 35.9185 41.9162 38.1392 40.025 40.0248C38.1337 41.9105 35.913 43.4059 33.3629 44.511C30.8128 45.6161 28.085 46.1665 25.1795 46.1624C22.2741 46.1582 19.5463 45.6091 16.9962 44.511ZM37.0874 37.0872C40.3397 33.8349 41.9659 29.8656 41.9659 25.1794C41.9659 20.4932 40.3397 16.524 37.0874 13.2716C33.835 10.0193 29.8657 8.39308 25.1795 8.39308C20.4934 8.39308 16.5241 10.0193 13.2717 13.2716C10.0194 16.524 8.3932 20.4932 8.3932 25.1794C8.3932 29.8656 10.0194 33.8349 13.2717 37.0872C16.5241 40.3396 20.4934 41.9658 25.1795 41.9658C29.8657 41.9658 33.835 40.3396 37.0874 37.0872ZM16.2618 34.0972C13.8138 31.6492 12.5898 28.6766 12.5898 25.1794C12.5898 21.6823 13.8138 18.7097 16.2618 16.2617C18.7098 13.8137 21.6824 12.5897 25.1795 12.5897C28.6767 12.5897 31.6493 13.8137 34.0973 16.2617C36.5453 18.7097 37.7693 21.6823 37.7693 25.1794C37.7693 28.6766 36.5453 31.6492 34.0973 34.0972C31.6493 36.5452 28.6767 37.7692 25.1795 37.7692C21.6824 37.7692 18.7098 36.5452 16.2618 34.0972ZM31.1072 31.1071C32.7509 29.4634 33.5727 27.4875 33.5727 25.1794C33.5727 22.8713 32.7509 20.8954 31.1072 19.2517C29.4636 17.6081 27.4877 16.7863 25.1795 16.7863C22.8714 16.7863 20.8955 17.6081 19.2519 19.2517C17.6082 20.8954 16.7864 22.8713 16.7864 25.1794C16.7864 27.4875 17.6082 29.4634 19.2519 31.1071C20.8955 32.7508 22.8714 33.5726 25.1795 33.5726C27.4877 33.5726 29.4636 32.7508 31.1072 31.1071ZM22.2168 28.1443C21.3942 27.3218 20.983 26.3335 20.983 25.1794C20.983 24.0254 21.3942 23.0378 22.2168 22.2166C23.0393 21.3955 24.0269 20.9842 25.1795 20.9828C26.3322 20.9814 27.3205 21.3927 28.1444 22.2166C28.9684 23.0406 29.3789 24.0282 29.3761 25.1794C29.3733 26.3307 28.9628 27.319 28.1444 28.1443C27.3261 28.9696 26.3378 29.3802 25.1795 29.376C24.0213 29.3718 23.0337 28.9612 22.2168 28.1443Z" fill="#6F5FF4"/>
</g>
</svg>
